<?xml version="1.0" encoding="utf-8"?>
<!-- Generator: Adobe Illustrator 19.2.1, SVG Export Plug-In . SVG Version: 6.00 Build 0)  -->
<svg version="1.1" xmlns="http://www.w3.org/2000/svg" xmlns:xlink="http://www.w3.org/1999/xlink" x="0px" y="0px"
	 viewBox="0 -32 96 128" style="enable-background:new 0 0 96 96;" xml:space="preserve">
	<style type="text/css">
		@keyframes fadeOutUp {
		  from {
		    opacity: 1;
		    transform: translate3d(0, 30%, 0);
		  }
		  50% {
		    opacity: 1;
		  }
		  to {
		    opacity: 0;
		    transform: translate3d(0, -50%, 0);
		  }
		}

		#cloud_1,
		#cloud_2 {
			animation: fadeOutUp 4s infinite;
		}
		.st0{fill:transparent;}
		.st1{display:none;}
		.st2{display:inline;}
		.st3 {
			fill:#2D4D68;
		}
		.st22 {
			clip-path:url(#SVGID_34_);
			fill:#EBF4F7;
		}
		.st23 {
			clip-path:url(#SVGID_34_);
			fill:#A8C4C6;
		}
		.st24{fill:#FFFFFF;}
		.st25 {
			clip-path:url(#SVGID_36_);
			fill:#EBF4F7;
		}
		.st26 {
			clip-path:url(#SVGID_36_);
			fill:#A8C4C6;
		}
	</style>
	<g id="bg">
		<rect x="96" y="96" class="st0"/>
	</g>
	<g id="colors">
		<g>
			<g>
				<defs>
					<path id="SVGID_33_" d="M87.7,94c-4.3,0-7.8-3.5-7.8-7.8V58H51.7v28.2c0,4.3-3.5,7.8-7.8,7.8H87.7z"/>
				</defs>
				<clipPath id="SVGID_34_">
					<use xlink:href="#SVGID_33_"  style="overflow:visible;"/>
				</clipPath>
				<path class="st22" d="M87.7,94c-4.3,0-7.8-3.5-7.8-7.8V58H51.7v28.2c0,4.3-3.5,7.8-7.8,7.8H87.7z"/>
				<rect x="69.9" y="32" class="st23" width="81" height="73"/>
			</g>
			<path class="st3" d="M87.7,96H43.9c-1.1,0-2-0.9-2-2s0.9-2,2-2c3.2,0,5.8-2.6,5.8-5.8V58c0-1.1,0.9-2,2-2h28.2c1.1,0,2,0.9,2,2
				v28.2c0,3.2,2.6,5.8,5.8,5.8c1.1,0,2,0.9,2,2S88.8,96,87.7,96z M51.8,92h28c-1.2-1.6-1.9-3.6-1.9-5.8V60H53.7v26.2
				C53.7,88.4,53,90.4,51.8,92z"/>
			<g>
				<path class="st24" d="M51.5,2l-9.7,0c-4.4,0-8.2,2.9-9.5,6.9c-0.6,1.8-2.2,3.1-4.2,3.1h0c-5,0-9.5,3.6-10.2,8.5
					C17.1,26.7,21.9,32,27.9,32h10c4.4,0,8.2-2.9,9.5-6.8c0.6-1.8,2.3-3.2,4.2-3.2h0.3c5.7,0,10.4-4.8,10-10.7C61.5,6,56.9,2,51.5,2z
					"/>
				<path id="cloud_1" class="st3" d="M37.9,34h-10c-3.5,0-6.8-1.5-9.1-4.1c-2.3-2.6-3.3-6.1-2.8-9.6C16.8,14.4,22.1,10,28.2,10
					c1,0,1.9-0.7,2.3-1.8C32.1,3.3,36.7,0,41.9,0h9.7C58,0,63.4,4.9,63.8,11.2c0.2,3.4-0.9,6.6-3.2,9c-2.3,2.4-5.5,3.8-8.8,3.8h-0.3
					c-1,0-1.9,0.7-2.3,1.8C47.6,30.7,43,34,37.9,34z M41.9,4c-3.5,0-6.5,2.2-7.6,5.5c-0.9,2.7-3.3,4.5-6.1,4.5
					c-4.2,0-7.7,2.9-8.3,6.8c-0.3,2.4,0.3,4.6,1.9,6.4c1.5,1.8,3.7,2.8,6,2.8h10c3.5,0,6.5-2.2,7.6-5.5c0.9-2.7,3.4-4.5,6.1-4.5h0.3
					c2.2,0,4.3-0.9,5.8-2.5c1.5-1.6,2.3-3.8,2.1-6C59.6,7.3,55.9,4,51.5,4H41.9z"/>
			</g>
			<g>
				<path class="st24" d="M83.8,22h-7.7c-3.6,0-6.6,2.3-7.6,5.5C68,29,66.7,30,65.2,30h0c-4,0-7.6,2.9-8.2,6.9
					c-0.7,4.9,3.1,9.2,7.9,9.2h8c3.5,0,6.5-2.3,7.6-5.5c0.5-1.5,1.8-2.5,3.4-2.5h0.2c4.6,0,8.3-3.9,8-8.5C91.8,25.2,88.1,22,83.8,22z
					"/>
				<path id="cloud_2" class="st3" d="M72.9,48h-8c-2.9,0-5.7-1.3-7.6-3.4c-1.9-2.2-2.8-5.1-2.4-8C55.7,31.7,60,28,65.2,28c0.6,0,1.2-0.4,1.4-1.1
					c1.4-4.1,5.2-6.9,9.5-6.9h7.7c5.4,0,9.9,4.1,10.3,9.4c0.2,2.8-0.8,5.5-2.7,7.5c-1.9,2-4.6,3.2-7.3,3.2h-0.2
					c-0.7,0-1.2,0.5-1.5,1.2C81,45.3,77.2,48,72.9,48z M76.1,24c-2.6,0-4.9,1.7-5.7,4.1c-0.8,2.3-2.9,3.9-5.2,3.9
					c-3.1,0-5.8,2.2-6.2,5.1c-0.3,1.8,0.2,3.5,1.4,4.8c1.1,1.3,2.8,2.1,4.5,2.1h8c2.6,0,4.9-1.7,5.7-4.1c0.8-2.3,2.9-3.9,5.3-3.9h0.2
					c1.7,0,3.2-0.7,4.4-1.9c1.1-1.2,1.7-2.8,1.6-4.5c-0.2-3.1-3-5.6-6.3-5.6H76.1z"/>
			</g>
			<g>
				<defs>
					<path id="SVGID_35_" d="M61.9,94c-5.5,0-10-4.5-10-10V48h-36v36c0,5.5-4.5,10-10,10H61.9z"/>
				</defs>
				<clipPath id="SVGID_36_">
					<use xlink:href="#SVGID_35_"  style="overflow:visible;"/>
				</clipPath>
				<path class="st25" d="M61.9,94c-5.5,0-10-4.5-10-10V48h-36v36c0,5.5-4.5,10-10,10H61.9z"/>
				<rect x="41.9" y="32" class="st26" width="81" height="73"/>
			</g>
			<path class="st3" d="M61.9,96h-56c-1.1,0-2-0.9-2-2s0.9-2,2-2c4.4,0,8-3.6,8-8V48c0-1.1,0.9-2,2-2h36c1.1,0,2,0.9,2,2v36
				c0,4.4,3.6,8,8,8c1.1,0,2,0.9,2,2S63,96,61.9,96z M14.8,92h38.1c-1.9-2.1-3.1-4.9-3.1-8V50h-32v34C17.9,87.1,16.7,89.9,14.8,92z"
				/>
		</g>
	</g>
</svg>